<svg width="248" height="32" viewBox="0 0 248 32" fill="none" xmlns="http://www.w3.org/2000/svg">
<path fill-rule="evenodd" clip-rule="evenodd" d="M23.2778 7.38436C21.2821 6.21831 18.8173 6.19975 16.8043 7.33562C16.5638 7.47132 16.2588 7.38637 16.1231 7.14587C15.9874 6.90537 16.0724 6.6004 16.3129 6.4647C18.6356 5.15408 21.4796 5.17549 23.7823 6.52094C26.085 7.86639 27.5 10.3335 27.4986 13.0004L26.9986 13.0002H27.4986V13.0004V17.0002C27.4986 17.2763 27.2747 17.5002 26.9986 17.5002C26.7225 17.5002 26.4986 17.2763 26.4986 17.0002V13.0002L26.4986 12.9999C26.4998 10.6885 25.2734 8.55042 23.2778 7.38436ZM14.0094 9.33587C14.2547 9.46255 14.351 9.76416 14.2243 10.0095C13.7471 10.9339 13.4987 11.9593 13.5 12.9995L13.5 13.0002L13.5 18.0002C13.5 18.9795 13.0978 19.8649 12.4495 20.5002H25C25.2761 20.5002 25.5 20.724 25.5 21.0002C25.5 21.2763 25.2761 21.5002 25 21.5002H10C9.72386 21.5002 9.5 21.2763 9.5 21.0002C9.5 20.724 9.72386 20.5002 10 20.5002C11.3807 20.5002 12.5 19.3809 12.5 18.0002V13.0004M18.0191 24.5677C18.258 24.4291 18.5639 24.5104 18.7025 24.7493C18.9708 25.2119 19.4652 25.4966 20 25.4966C20.5348 25.4966 21.0292 25.2119 21.2975 24.7493C21.4361 24.5104 21.742 24.4291 21.9809 24.5677C22.2197 24.7062 22.3011 25.0122 22.1625 25.251C21.7153 26.022 20.8913 26.4966 20 26.4966C19.1087 26.4966 18.2847 26.022 17.8375 25.251C17.6989 25.0122 17.7803 24.7062 18.0191 24.5677Z" fill="#414141"/>
<path fill-rule="evenodd" clip-rule="evenodd" d="M8.64645 4.64645C8.84171 4.45118 9.15829 4.45118 9.35355 4.64645L31.3536 26.6464C31.5488 26.8417 31.5488 27.1583 31.3536 27.3536C31.1583 27.5488 30.8417 27.5488 30.6464 27.3536L8.64645 5.35355C8.45118 5.15829 8.45118 4.84171 8.64645 4.64645Z" fill="#414141"/>
<path d="M57.7503 20C57.6703 20 57.6023 19.976 57.5463 19.928C57.4983 19.872 57.4743 19.804 57.4743 19.724V19.22C57.4743 19.132 57.4983 19.064 57.5463 19.016C57.6023 18.96 57.6703 18.932 57.7503 18.932H58.1703C58.4263 18.932 58.6463 18.872 58.8303 18.752C59.0143 18.624 59.1863 18.428 59.3463 18.164C59.5143 17.9 59.6863 17.556 59.8623 17.132L62.2023 11.804C62.2263 11.732 62.2663 11.68 62.3223 11.648C62.3783 11.616 62.4383 11.6 62.5023 11.6H63.1503C63.2143 11.6 63.2703 11.624 63.3183 11.672C63.3663 11.72 63.3903 11.776 63.3903 11.84C63.3903 11.872 63.3863 11.904 63.3783 11.936C63.3783 11.96 63.3703 11.984 63.3543 12.008L60.9063 17.552C60.7143 17.976 60.5343 18.344 60.3663 18.656C60.1983 18.96 60.0183 19.212 59.8263 19.412C59.6343 19.612 59.4103 19.76 59.1543 19.856C58.8983 19.952 58.5903 20 58.2303 20H57.7503ZM59.7903 17.96L56.5143 11.984C56.4903 11.936 56.4783 11.892 56.4783 11.852C56.4783 11.788 56.5023 11.732 56.5503 11.684C56.6063 11.628 56.6663 11.6 56.7303 11.6H57.4023C57.4743 11.6 57.5343 11.616 57.5823 11.648C57.6303 11.68 57.6703 11.732 57.7023 11.804L60.4263 16.76L59.7903 17.96ZM64.5527 20C64.4727 20 64.4047 19.976 64.3487 19.928C64.3007 19.872 64.2767 19.804 64.2767 19.724V14.036C64.2767 13.956 64.3007 13.892 64.3487 13.844C64.4047 13.788 64.4727 13.76 64.5527 13.76H67.0487C67.8007 13.76 68.3647 13.912 68.7407 14.216C69.1247 14.52 69.3167 14.928 69.3167 15.44C69.3167 15.8 69.2487 16.072 69.1127 16.256C68.9767 16.44 68.7847 16.596 68.5367 16.724C68.8407 16.852 69.0687 17.06 69.2207 17.348C69.3807 17.628 69.4607 17.92 69.4607 18.224C69.4607 18.8 69.2567 19.24 68.8487 19.544C68.4407 19.848 67.8727 20 67.1447 20H64.5527ZM65.3807 19.124H67.0487C67.4327 19.124 67.7407 19.052 67.9727 18.908C68.2127 18.756 68.3327 18.528 68.3327 18.224C68.3327 17.904 68.2247 17.672 68.0087 17.528C67.7927 17.376 67.4727 17.3 67.0487 17.3H65.3807V19.124ZM65.3807 16.412H66.9767C67.3607 16.412 67.6647 16.328 67.8887 16.16C68.1207 15.992 68.2367 15.756 68.2367 15.452C68.2367 15.14 68.1207 14.928 67.8887 14.816C67.6647 14.696 67.3607 14.636 66.9767 14.636H65.3807V16.412ZM73.4872 20.12C72.6632 20.12 72.0072 19.868 71.5192 19.364C71.0312 18.852 70.7632 18.156 70.7152 17.276C70.7072 17.172 70.7032 17.04 70.7032 16.88C70.7032 16.712 70.7072 16.576 70.7152 16.472C70.7472 15.904 70.8792 15.408 71.1112 14.984C71.3432 14.552 71.6592 14.22 72.0592 13.988C72.4672 13.756 72.9432 13.64 73.4872 13.64C74.0952 13.64 74.6032 13.768 75.0112 14.024C75.4272 14.28 75.7432 14.644 75.9592 15.116C76.1752 15.588 76.2832 16.14 76.2832 16.772V16.976C76.2832 17.064 76.2552 17.132 76.1992 17.18C76.1512 17.228 76.0872 17.252 76.0072 17.252H71.8552C71.8552 17.26 71.8552 17.276 71.8552 17.3C71.8552 17.324 71.8552 17.344 71.8552 17.36C71.8712 17.688 71.9432 17.996 72.0712 18.284C72.1992 18.564 72.3832 18.792 72.6232 18.968C72.8632 19.144 73.1512 19.232 73.4872 19.232C73.7752 19.232 74.0152 19.188 74.2072 19.1C74.3992 19.012 74.5552 18.916 74.6752 18.812C74.7952 18.7 74.8752 18.616 74.9152 18.56C74.9872 18.456 75.0432 18.396 75.0832 18.38C75.1232 18.356 75.1872 18.344 75.2752 18.344H75.8512C75.9312 18.344 75.9952 18.368 76.0432 18.416C76.0992 18.456 76.1232 18.516 76.1152 18.596C76.1072 18.716 76.0432 18.864 75.9232 19.04C75.8032 19.208 75.6312 19.376 75.4072 19.544C75.1832 19.712 74.9112 19.852 74.5912 19.964C74.2712 20.068 73.9032 20.12 73.4872 20.12ZM71.8552 16.424H75.1432V16.388C75.1432 16.028 75.0752 15.708 74.9392 15.428C74.8112 15.148 74.6232 14.928 74.3752 14.768C74.1272 14.6 73.8312 14.516 73.4872 14.516C73.1432 14.516 72.8472 14.6 72.5992 14.768C72.3592 14.928 72.1752 15.148 72.0472 15.428C71.9192 15.708 71.8552 16.028 71.8552 16.388V16.424ZM77.3581 21.32C77.2781 21.32 77.2101 21.292 77.1541 21.236C77.1061 21.188 77.0821 21.124 77.0821 21.044V19.316C77.0821 19.236 77.1061 19.172 77.1541 19.124C77.2101 19.068 77.2781 19.04 77.3581 19.04H77.4181C77.6341 19.032 77.8181 18.912 77.9701 18.68C78.1221 18.44 78.2381 18.068 78.3181 17.564C78.3981 17.052 78.4381 16.388 78.4381 15.572V14.036C78.4381 13.956 78.4621 13.892 78.5101 13.844C78.5661 13.788 78.6341 13.76 78.7141 13.76H82.5421C82.6221 13.76 82.6861 13.788 82.7341 13.844C82.7901 13.892 82.8181 13.956 82.8181 14.036V19.016H83.3821C83.4701 19.016 83.5381 19.044 83.5861 19.1C83.6341 19.148 83.6581 19.212 83.6581 19.292V21.044C83.6581 21.124 83.6341 21.188 83.5861 21.236C83.5381 21.292 83.4701 21.32 83.3821 21.32H82.8181C82.7381 21.32 82.6701 21.292 82.6141 21.236C82.5661 21.188 82.5421 21.124 82.5421 21.044V20H78.1981V21.044C78.1981 21.124 78.1701 21.188 78.1141 21.236C78.0661 21.292 78.0021 21.32 77.9221 21.32H77.3581ZM78.8461 19.04L81.7021 19.016V14.72H79.5301V15.704C79.5301 16.552 79.4701 17.248 79.3501 17.792C79.2301 18.328 79.0621 18.744 78.8461 19.04ZM87.4694 20.12C86.8614 20.12 86.3534 20.004 85.9454 19.772C85.5374 19.54 85.2254 19.22 85.0094 18.812C84.7934 18.396 84.6734 17.924 84.6494 17.396C84.6414 17.26 84.6374 17.088 84.6374 16.88C84.6374 16.664 84.6414 16.492 84.6494 16.364C84.6734 15.828 84.7934 15.356 85.0094 14.948C85.2334 14.54 85.5494 14.22 85.9574 13.988C86.3654 13.756 86.8694 13.64 87.4694 13.64C88.0694 13.64 88.5734 13.756 88.9814 13.988C89.3894 14.22 89.7014 14.54 89.9174 14.948C90.1414 15.356 90.2654 15.828 90.2894 16.364C90.2974 16.492 90.3014 16.664 90.3014 16.88C90.3014 17.088 90.2974 17.26 90.2894 17.396C90.2654 17.924 90.1454 18.396 89.9294 18.812C89.7134 19.22 89.4014 19.54 88.9934 19.772C88.5854 20.004 88.0774 20.12 87.4694 20.12ZM87.4694 19.196C87.9654 19.196 88.3614 19.04 88.6574 18.728C88.9534 18.408 89.1134 17.944 89.1374 17.336C89.1454 17.216 89.1494 17.064 89.1494 16.88C89.1494 16.696 89.1454 16.544 89.1374 16.424C89.1134 15.816 88.9534 15.356 88.6574 15.044C88.3614 14.724 87.9654 14.564 87.4694 14.564C86.9734 14.564 86.5734 14.724 86.2694 15.044C85.9734 15.356 85.8174 15.816 85.8014 16.424C85.7934 16.544 85.7894 16.696 85.7894 16.88C85.7894 17.064 85.7934 17.216 85.8014 17.336C85.8174 17.944 85.9734 18.408 86.2694 18.728C86.5734 19.04 86.9734 19.196 87.4694 19.196ZM92.068 20C91.988 20 91.924 19.976 91.876 19.928C91.828 19.88 91.804 19.816 91.804 19.736V13.988C91.804 13.924 91.828 13.872 91.876 13.832C91.932 13.784 91.988 13.76 92.044 13.76H92.656C92.784 13.76 92.884 13.824 92.956 13.952L94.996 17.768L97.048 13.952C97.12 13.824 97.22 13.76 97.348 13.76H97.948C98.012 13.76 98.068 13.784 98.116 13.832C98.164 13.872 98.188 13.924 98.188 13.988V19.736C98.188 19.816 98.164 19.88 98.116 19.928C98.068 19.976 98.008 20 97.936 20H97.348C97.268 20 97.204 19.976 97.156 19.928C97.108 19.88 97.084 19.816 97.084 19.736V14.948L97.504 14.996L95.548 18.692C95.508 18.772 95.46 18.844 95.404 18.908C95.348 18.972 95.264 19.004 95.152 19.004H94.84C94.736 19.004 94.656 18.972 94.6 18.908C94.544 18.844 94.492 18.772 94.444 18.692L92.548 15.176L92.92 15.14V19.736C92.92 19.816 92.896 19.88 92.848 19.928C92.8 19.976 92.736 20 92.656 20H92.068ZM100.248 20C100.176 20 100.112 19.976 100.056 19.928C100.008 19.872 99.9837 19.812 99.9837 19.748V14.036C99.9837 13.956 100.008 13.892 100.056 13.844C100.112 13.788 100.18 13.76 100.26 13.76H100.836C100.916 13.76 100.98 13.788 101.028 13.844C101.076 13.892 101.1 13.956 101.1 14.036V19.124L100.788 18.8L104.424 13.94C104.464 13.892 104.508 13.852 104.556 13.82C104.604 13.78 104.664 13.76 104.736 13.76H105.288C105.352 13.76 105.408 13.784 105.456 13.832C105.512 13.88 105.54 13.936 105.54 14V19.724C105.54 19.804 105.512 19.872 105.456 19.928C105.408 19.976 105.344 20 105.264 20H104.7C104.612 20 104.544 19.976 104.496 19.928C104.448 19.872 104.424 19.804 104.424 19.724V14.936L104.76 14.924L101.1 19.82C101.068 19.86 101.028 19.9 100.98 19.94C100.932 19.98 100.868 20 100.788 20H100.248ZM109.204 20C109.124 20 109.056 19.976 109 19.928C108.952 19.872 108.928 19.804 108.928 19.724V14.72H106.84C106.76 14.72 106.692 14.696 106.636 14.648C106.588 14.592 106.564 14.524 106.564 14.444V14.036C106.564 13.956 106.588 13.892 106.636 13.844C106.692 13.788 106.76 13.76 106.84 13.76H112.12C112.2 13.76 112.264 13.788 112.312 13.844C112.368 13.892 112.396 13.956 112.396 14.036V14.444C112.396 14.524 112.368 14.592 112.312 14.648C112.264 14.696 112.2 14.72 112.12 14.72H110.032V19.724C110.032 19.804 110.008 19.872 109.96 19.928C109.912 19.976 109.844 20 109.756 20H109.204ZM113.713 20C113.633 20 113.565 19.976 113.509 19.928C113.461 19.872 113.437 19.804 113.437 19.724V14.036C113.437 13.956 113.461 13.892 113.509 13.844C113.565 13.788 113.633 13.76 113.713 13.76H114.289C114.369 13.76 114.433 13.788 114.481 13.844C114.537 13.892 114.565 13.956 114.565 14.036V15.8H115.909C116.725 15.8 117.321 15.992 117.697 16.376C118.073 16.76 118.261 17.28 118.261 17.936C118.261 18.64 118.053 19.16 117.637 19.496C117.221 19.832 116.597 20 115.765 20H113.713ZM114.553 19.1H115.813C116.293 19.1 116.645 19.016 116.869 18.848C117.093 18.672 117.205 18.368 117.205 17.936C117.205 17.52 117.097 17.212 116.881 17.012C116.665 16.804 116.309 16.7 115.813 16.7H114.553V19.1ZM124.946 20.12C124.338 20.12 123.83 20.004 123.422 19.772C123.014 19.54 122.702 19.22 122.486 18.812C122.27 18.396 122.15 17.924 122.126 17.396C122.118 17.26 122.114 17.088 122.114 16.88C122.114 16.664 122.118 16.492 122.126 16.364C122.15 15.828 122.27 15.356 122.486 14.948C122.71 14.54 123.026 14.22 123.434 13.988C123.842 13.756 124.346 13.64 124.946 13.64C125.546 13.64 126.05 13.756 126.458 13.988C126.866 14.22 127.178 14.54 127.394 14.948C127.618 15.356 127.742 15.828 127.766 16.364C127.774 16.492 127.778 16.664 127.778 16.88C127.778 17.088 127.774 17.26 127.766 17.396C127.742 17.924 127.622 18.396 127.406 18.812C127.19 19.22 126.878 19.54 126.47 19.772C126.062 20.004 125.554 20.12 124.946 20.12ZM124.946 19.196C125.442 19.196 125.838 19.04 126.134 18.728C126.43 18.408 126.59 17.944 126.614 17.336C126.622 17.216 126.626 17.064 126.626 16.88C126.626 16.696 126.622 16.544 126.614 16.424C126.59 15.816 126.43 15.356 126.134 15.044C125.838 14.724 125.442 14.564 124.946 14.564C124.45 14.564 124.05 14.724 123.746 15.044C123.45 15.356 123.294 15.816 123.278 16.424C123.27 16.544 123.266 16.696 123.266 16.88C123.266 17.064 123.27 17.216 123.278 17.336C123.294 17.944 123.45 18.408 123.746 18.728C124.05 19.04 124.45 19.196 124.946 19.196ZM134.742 20.12C134.174 20.12 133.682 20.012 133.266 19.796C132.858 19.572 132.542 19.256 132.318 18.848C132.094 18.432 131.974 17.936 131.958 17.36C131.95 17.24 131.946 17.08 131.946 16.88C131.946 16.68 131.95 16.52 131.958 16.4C131.974 15.824 132.094 15.332 132.318 14.924C132.542 14.508 132.858 14.192 133.266 13.976C133.682 13.752 134.174 13.64 134.742 13.64C135.206 13.64 135.602 13.704 135.93 13.832C136.266 13.96 136.542 14.124 136.758 14.324C136.974 14.524 137.134 14.74 137.238 14.972C137.35 15.204 137.41 15.424 137.418 15.632C137.426 15.712 137.402 15.776 137.346 15.824C137.29 15.872 137.222 15.896 137.142 15.896H136.566C136.486 15.896 136.426 15.88 136.386 15.848C136.346 15.808 136.306 15.744 136.266 15.656C136.122 15.264 135.926 14.988 135.678 14.828C135.43 14.668 135.122 14.588 134.754 14.588C134.274 14.588 133.882 14.736 133.578 15.032C133.282 15.328 133.122 15.804 133.098 16.46C133.09 16.748 133.09 17.028 133.098 17.3C133.122 17.964 133.282 18.444 133.578 18.74C133.882 19.028 134.274 19.172 134.754 19.172C135.122 19.172 135.43 19.092 135.678 18.932C135.926 18.772 136.122 18.496 136.266 18.104C136.306 18.016 136.346 17.956 136.386 17.924C136.426 17.884 136.486 17.864 136.566 17.864H137.142C137.222 17.864 137.29 17.888 137.346 17.936C137.402 17.984 137.426 18.048 137.418 18.128C137.41 18.296 137.374 18.468 137.31 18.644C137.246 18.82 137.142 19 136.998 19.184C136.862 19.36 136.69 19.52 136.482 19.664C136.274 19.8 136.022 19.912 135.726 20C135.438 20.08 135.11 20.12 134.742 20.12ZM139.119 20C139.039 20 138.971 19.976 138.915 19.928C138.867 19.872 138.843 19.804 138.843 19.724V14.036C138.843 13.956 138.867 13.892 138.915 13.844C138.971 13.788 139.039 13.76 139.119 13.76H139.695C139.775 13.76 139.839 13.788 139.887 13.844C139.935 13.892 139.959 13.956 139.959 14.036V16.34H143.235V14.036C143.235 13.956 143.259 13.892 143.307 13.844C143.363 13.788 143.431 13.76 143.511 13.76H144.075C144.155 13.76 144.219 13.788 144.267 13.844C144.323 13.892 144.351 13.956 144.351 14.036V19.724C144.351 19.804 144.323 19.872 144.267 19.928C144.219 19.976 144.155 20 144.075 20H143.511C143.431 20 143.363 19.976 143.307 19.928C143.259 19.872 143.235 19.804 143.235 19.724V17.3H139.959V19.724C139.959 19.804 139.935 19.872 139.887 19.928C139.839 19.976 139.775 20 139.695 20H139.119ZM146.42 20C146.348 20 146.284 19.976 146.228 19.928C146.18 19.872 146.156 19.812 146.156 19.748V14.036C146.156 13.956 146.18 13.892 146.228 13.844C146.284 13.788 146.352 13.76 146.432 13.76H147.008C147.088 13.76 147.152 13.788 147.2 13.844C147.248 13.892 147.272 13.956 147.272 14.036V19.124L146.96 18.8L150.596 13.94C150.636 13.892 150.68 13.852 150.728 13.82C150.776 13.78 150.836 13.76 150.908 13.76H151.46C151.524 13.76 151.58 13.784 151.628 13.832C151.684 13.88 151.712 13.936 151.712 14V19.724C151.712 19.804 151.684 19.872 151.628 19.928C151.58 19.976 151.516 20 151.436 20H150.872C150.784 20 150.716 19.976 150.668 19.928C150.62 19.872 150.596 19.804 150.596 19.724V14.936L150.932 14.924L147.272 19.82C147.24 19.86 147.2 19.9 147.152 19.94C147.104 19.98 147.04 20 146.96 20H146.42ZM153.096 20C153.024 20 152.964 19.984 152.916 19.952C152.876 19.92 152.856 19.872 152.856 19.808C152.856 19.768 152.876 19.716 152.916 19.652L154.968 16.736L153.156 14.096C153.14 14.072 153.128 14.048 153.12 14.024C153.112 13.992 153.108 13.968 153.108 13.952C153.108 13.888 153.128 13.84 153.168 13.808C153.216 13.776 153.276 13.76 153.348 13.76H153.972C154.052 13.76 154.116 13.776 154.164 13.808C154.212 13.84 154.256 13.884 154.296 13.94L155.916 16.34H156.828V14.036C156.828 13.956 156.852 13.892 156.9 13.844C156.956 13.788 157.024 13.76 157.104 13.76H157.656C157.744 13.76 157.812 13.788 157.86 13.844C157.908 13.892 157.932 13.956 157.932 14.036V16.34H158.808L160.452 13.94C160.484 13.884 160.524 13.84 160.572 13.808C160.628 13.776 160.692 13.76 160.764 13.76H161.4C161.472 13.76 161.528 13.776 161.568 13.808C161.616 13.84 161.64 13.888 161.64 13.952C161.64 13.968 161.632 13.992 161.616 14.024C161.608 14.048 161.596 14.072 161.58 14.096L159.78 16.736L161.832 19.652C161.864 19.7 161.88 19.752 161.88 19.808C161.88 19.872 161.86 19.92 161.82 19.952C161.78 19.984 161.72 20 161.64 20H160.92C160.84 20 160.772 19.984 160.716 19.952C160.668 19.92 160.628 19.876 160.596 19.82L158.844 17.3H157.932V19.724C157.932 19.804 157.908 19.872 157.86 19.928C157.812 19.976 157.744 20 157.656 20H157.104C157.024 20 156.956 19.976 156.9 19.928C156.852 19.872 156.828 19.804 156.828 19.724V17.3H155.916L154.14 19.82C154.116 19.876 154.076 19.92 154.02 19.952C153.972 19.984 153.908 20 153.828 20H153.096ZM165.526 20.12C164.702 20.12 164.046 19.868 163.558 19.364C163.07 18.852 162.802 18.156 162.754 17.276C162.746 17.172 162.742 17.04 162.742 16.88C162.742 16.712 162.746 16.576 162.754 16.472C162.786 15.904 162.918 15.408 163.15 14.984C163.382 14.552 163.698 14.22 164.098 13.988C164.506 13.756 164.982 13.64 165.526 13.64C166.134 13.64 166.642 13.768 167.05 14.024C167.466 14.28 167.782 14.644 167.998 15.116C168.214 15.588 168.322 16.14 168.322 16.772V16.976C168.322 17.064 168.294 17.132 168.238 17.18C168.19 17.228 168.126 17.252 168.046 17.252H163.894C163.894 17.26 163.894 17.276 163.894 17.3C163.894 17.324 163.894 17.344 163.894 17.36C163.91 17.688 163.982 17.996 164.11 18.284C164.238 18.564 164.422 18.792 164.662 18.968C164.902 19.144 165.19 19.232 165.526 19.232C165.814 19.232 166.054 19.188 166.246 19.1C166.438 19.012 166.594 18.916 166.714 18.812C166.834 18.7 166.914 18.616 166.954 18.56C167.026 18.456 167.082 18.396 167.122 18.38C167.162 18.356 167.226 18.344 167.314 18.344H167.89C167.97 18.344 168.034 18.368 168.082 18.416C168.138 18.456 168.162 18.516 168.154 18.596C168.146 18.716 168.082 18.864 167.962 19.04C167.842 19.208 167.67 19.376 167.446 19.544C167.222 19.712 166.95 19.852 166.63 19.964C166.31 20.068 165.942 20.12 165.526 20.12ZM163.894 16.424H167.182V16.388C167.182 16.028 167.114 15.708 166.978 15.428C166.85 15.148 166.662 14.928 166.414 14.768C166.166 14.6 165.87 14.516 165.526 14.516C165.182 14.516 164.886 14.6 164.638 14.768C164.398 14.928 164.214 15.148 164.086 15.428C163.958 15.708 163.894 16.028 163.894 16.388V16.424ZM170.033 20C169.953 20 169.885 19.976 169.829 19.928C169.781 19.872 169.757 19.804 169.757 19.724V14.036C169.757 13.956 169.781 13.892 169.829 13.844C169.885 13.788 169.953 13.76 170.033 13.76H170.609C170.689 13.76 170.753 13.788 170.801 13.844C170.849 13.892 170.873 13.956 170.873 14.036V16.34H174.149V14.036C174.149 13.956 174.173 13.892 174.221 13.844C174.277 13.788 174.345 13.76 174.425 13.76H174.989C175.069 13.76 175.133 13.788 175.181 13.844C175.237 13.892 175.265 13.956 175.265 14.036V19.724C175.265 19.804 175.237 19.872 175.181 19.928C175.133 19.976 175.069 20 174.989 20H174.425C174.345 20 174.277 19.976 174.221 19.928C174.173 19.872 174.149 19.804 174.149 19.724V17.3H170.873V19.724C170.873 19.804 170.849 19.872 170.801 19.928C170.753 19.976 170.689 20 170.609 20H170.033ZM177.334 20C177.262 20 177.198 19.976 177.142 19.928C177.094 19.872 177.07 19.812 177.07 19.748V14.036C177.07 13.956 177.094 13.892 177.142 13.844C177.198 13.788 177.266 13.76 177.346 13.76H177.922C178.002 13.76 178.066 13.788 178.114 13.844C178.162 13.892 178.186 13.956 178.186 14.036V19.124L177.874 18.8L181.51 13.94C181.55 13.892 181.594 13.852 181.642 13.82C181.69 13.78 181.75 13.76 181.822 13.76H182.374C182.438 13.76 182.494 13.784 182.542 13.832C182.598 13.88 182.626 13.936 182.626 14V19.724C182.626 19.804 182.598 19.872 182.542 19.928C182.494 19.976 182.43 20 182.35 20H181.786C181.698 20 181.63 19.976 181.582 19.928C181.534 19.872 181.51 19.804 181.51 19.724V14.936L181.846 14.924L178.186 19.82C178.154 19.86 178.114 19.9 178.066 19.94C178.018 19.98 177.954 20 177.874 20H177.334ZM184.646 20C184.574 20 184.51 19.976 184.454 19.928C184.406 19.872 184.382 19.812 184.382 19.748V14.036C184.382 13.956 184.406 13.892 184.454 13.844C184.51 13.788 184.578 13.76 184.658 13.76H185.234C185.314 13.76 185.378 13.788 185.426 13.844C185.474 13.892 185.498 13.956 185.498 14.036V19.124L185.186 18.8L188.822 13.94C188.862 13.892 188.906 13.852 188.954 13.82C189.002 13.78 189.062 13.76 189.134 13.76H189.686C189.75 13.76 189.806 13.784 189.854 13.832C189.91 13.88 189.938 13.936 189.938 14V19.724C189.938 19.804 189.91 19.872 189.854 19.928C189.806 19.976 189.742 20 189.662 20H189.098C189.01 20 188.942 19.976 188.894 19.928C188.846 19.872 188.822 19.804 188.822 19.724V14.936L189.158 14.924L185.498 19.82C185.466 19.86 185.426 19.9 185.378 19.94C185.33 19.98 185.266 20 185.186 20H184.646ZM199.952 21.512C199.864 21.512 199.796 21.488 199.748 21.44C199.7 21.392 199.676 21.324 199.676 21.236V20H194.912C194.832 20 194.764 19.976 194.708 19.928C194.66 19.872 194.636 19.804 194.636 19.724V14.036C194.636 13.956 194.66 13.892 194.708 13.844C194.764 13.788 194.832 13.76 194.912 13.76H195.488C195.568 13.76 195.632 13.788 195.68 13.844C195.728 13.892 195.752 13.956 195.752 14.036V19.04H198.836V14.036C198.836 13.956 198.86 13.892 198.908 13.844C198.956 13.788 199.02 13.76 199.1 13.76H199.676C199.756 13.76 199.82 13.788 199.868 13.844C199.924 13.892 199.952 13.956 199.952 14.036L199.94 19.04H200.516C200.596 19.04 200.66 19.068 200.708 19.124C200.764 19.172 200.792 19.236 200.792 19.316V21.236C200.792 21.324 200.764 21.392 200.708 21.44C200.66 21.488 200.596 21.512 200.516 21.512H199.952ZM204.526 20.12C203.702 20.12 203.046 19.868 202.558 19.364C202.07 18.852 201.802 18.156 201.754 17.276C201.746 17.172 201.742 17.04 201.742 16.88C201.742 16.712 201.746 16.576 201.754 16.472C201.786 15.904 201.918 15.408 202.15 14.984C202.382 14.552 202.698 14.22 203.098 13.988C203.506 13.756 203.982 13.64 204.526 13.64C205.134 13.64 205.642 13.768 206.05 14.024C206.466 14.28 206.782 14.644 206.998 15.116C207.214 15.588 207.322 16.14 207.322 16.772V16.976C207.322 17.064 207.294 17.132 207.238 17.18C207.19 17.228 207.126 17.252 207.046 17.252H202.894C202.894 17.26 202.894 17.276 202.894 17.3C202.894 17.324 202.894 17.344 202.894 17.36C202.91 17.688 202.982 17.996 203.11 18.284C203.238 18.564 203.422 18.792 203.662 18.968C203.902 19.144 204.19 19.232 204.526 19.232C204.814 19.232 205.054 19.188 205.246 19.1C205.438 19.012 205.594 18.916 205.714 18.812C205.834 18.7 205.914 18.616 205.954 18.56C206.026 18.456 206.082 18.396 206.122 18.38C206.162 18.356 206.226 18.344 206.314 18.344H206.89C206.97 18.344 207.034 18.368 207.082 18.416C207.138 18.456 207.162 18.516 207.154 18.596C207.146 18.716 207.082 18.864 206.962 19.04C206.842 19.208 206.67 19.376 206.446 19.544C206.222 19.712 205.95 19.852 205.63 19.964C205.31 20.068 204.942 20.12 204.526 20.12ZM202.894 16.424H206.182V16.388C206.182 16.028 206.114 15.708 205.978 15.428C205.85 15.148 205.662 14.928 205.414 14.768C205.166 14.6 204.87 14.516 204.526 14.516C204.182 14.516 203.886 14.6 203.638 14.768C203.398 14.928 203.214 15.148 203.086 15.428C202.958 15.708 202.894 16.028 202.894 16.388V16.424ZM209.033 20C208.953 20 208.885 19.976 208.829 19.928C208.781 19.872 208.757 19.804 208.757 19.724V14.036C208.757 13.956 208.781 13.892 208.829 13.844C208.885 13.788 208.953 13.76 209.033 13.76H209.609C209.689 13.76 209.753 13.788 209.801 13.844C209.849 13.892 209.873 13.956 209.873 14.036V16.34H213.149V14.036C213.149 13.956 213.173 13.892 213.221 13.844C213.277 13.788 213.345 13.76 213.425 13.76H213.989C214.069 13.76 214.133 13.788 214.181 13.844C214.237 13.892 214.265 13.956 214.265 14.036V19.724C214.265 19.804 214.237 19.872 214.181 19.928C214.133 19.976 214.069 20 213.989 20H213.425C213.345 20 213.277 19.976 213.221 19.928C213.173 19.872 213.149 19.804 213.149 19.724V17.3H209.873V19.724C209.873 19.804 209.849 19.872 209.801 19.928C209.753 19.976 209.689 20 209.609 20H209.033ZM216.346 20C216.266 20 216.198 19.976 216.142 19.928C216.094 19.872 216.07 19.804 216.07 19.724V14.036C216.07 13.956 216.094 13.892 216.142 13.844C216.198 13.788 216.266 13.76 216.346 13.76H216.922C217.002 13.76 217.066 13.788 217.114 13.844C217.17 13.892 217.198 13.956 217.198 14.036V15.8H218.446C219.262 15.8 219.858 15.992 220.234 16.376C220.61 16.76 220.798 17.28 220.798 17.936C220.798 18.64 220.59 19.16 220.174 19.496C219.758 19.832 219.134 20 218.302 20H216.346ZM217.186 19.1H218.338C218.826 19.1 219.182 19.016 219.406 18.848C219.63 18.672 219.742 18.368 219.742 17.936C219.742 17.52 219.634 17.212 219.418 17.012C219.202 16.804 218.842 16.7 218.338 16.7H217.186V19.1ZM221.926 20C221.846 20 221.778 19.976 221.722 19.928C221.674 19.872 221.65 19.804 221.65 19.724V14.036C221.65 13.956 221.674 13.892 221.722 13.844C221.778 13.788 221.846 13.76 221.926 13.76H222.502C222.582 13.76 222.646 13.788 222.694 13.844C222.75 13.892 222.778 13.956 222.778 14.036V19.724C222.778 19.804 222.75 19.872 222.694 19.928C222.646 19.976 222.582 20 222.502 20H221.926Z" fill="#606060"/>
</svg>
