<svg width="212" height="32" viewBox="0 0 212 32" fill="none" xmlns="http://www.w3.org/2000/svg">
<path d="M31.1883 10.6665H8.81196C8.34314 10.6665 7.96031 11.0581 8.0033 11.5204C8.49464 17.0112 13.6783 21.3332 20.0001 21.3332C26.322 21.3332 31.5056 17.0132 31.997 11.5204C32.0379 11.0581 31.6571 10.6665 31.1883 10.6665Z" fill="#70C05B"/>
<path d="M50.4821 20C50.3941 20 50.3261 19.976 50.2781 19.928C50.2301 19.872 50.2061 19.804 50.2061 19.724V11.888C50.2061 11.8 50.2301 11.732 50.2781 11.684C50.3261 11.628 50.3941 11.6 50.4821 11.6H53.7701C54.3701 11.6 54.8581 11.7 55.2341 11.9C55.6181 12.092 55.8981 12.356 56.0741 12.692C56.2581 13.028 56.3501 13.404 56.3501 13.82C56.3501 14.148 56.2941 14.432 56.1821 14.672C56.0781 14.904 55.9461 15.096 55.7861 15.248C55.6261 15.392 55.4701 15.504 55.3181 15.584C55.6301 15.736 55.9061 15.984 56.1461 16.328C56.3941 16.672 56.5181 17.088 56.5181 17.576C56.5181 18.016 56.4181 18.42 56.2181 18.788C56.0181 19.156 55.7181 19.452 55.3181 19.676C54.9261 19.892 54.4381 20 53.8541 20H50.4821ZM51.3821 19.028H53.6981C54.2181 19.028 54.6181 18.888 54.8981 18.608C55.1781 18.328 55.3181 17.984 55.3181 17.576C55.3181 17.152 55.1781 16.804 54.8981 16.532C54.6181 16.252 54.2181 16.112 53.6981 16.112H51.3821V19.028ZM51.3821 15.152H53.5901C54.1021 15.152 54.4901 15.036 54.7541 14.804C55.0181 14.564 55.1501 14.24 55.1501 13.832C55.1501 13.424 55.0181 13.112 54.7541 12.896C54.4901 12.68 54.1021 12.572 53.5901 12.572H51.3821V15.152ZM58.3417 20C58.2617 20 58.1937 19.976 58.1377 19.928C58.0897 19.872 58.0657 19.804 58.0657 19.724V14.036C58.0657 13.956 58.0897 13.892 58.1377 13.844C58.1937 13.788 58.2617 13.76 58.3417 13.76H58.9177C58.9977 13.76 59.0617 13.788 59.1097 13.844C59.1657 13.892 59.1937 13.956 59.1937 14.036V15.8H60.4417C61.2577 15.8 61.8537 15.992 62.2297 16.376C62.6057 16.76 62.7937 17.28 62.7937 17.936C62.7937 18.64 62.5857 19.16 62.1697 19.496C61.7537 19.832 61.1297 20 60.2977 20H58.3417ZM59.1817 19.1H60.3337C60.8217 19.1 61.1777 19.016 61.4017 18.848C61.6257 18.672 61.7377 18.368 61.7377 17.936C61.7377 17.52 61.6297 17.212 61.4137 17.012C61.1977 16.804 60.8377 16.7 60.3337 16.7H59.1817V19.1ZM63.9217 20C63.8417 20 63.7737 19.976 63.7177 19.928C63.6697 19.872 63.6457 19.804 63.6457 19.724V14.036C63.6457 13.956 63.6697 13.892 63.7177 13.844C63.7737 13.788 63.8417 13.76 63.9217 13.76H64.4977C64.5777 13.76 64.6417 13.788 64.6897 13.844C64.7457 13.892 64.7737 13.956 64.7737 14.036V19.724C64.7737 19.804 64.7457 19.872 64.6897 19.928C64.6417 19.976 64.5777 20 64.4977 20H63.9217ZM69.7792 20C69.6992 20 69.6312 19.976 69.5752 19.928C69.5272 19.872 69.5032 19.804 69.5032 19.724V14.036C69.5032 13.956 69.5272 13.892 69.5752 13.844C69.6312 13.788 69.6992 13.76 69.7792 13.76H74.5432C74.6232 13.76 74.6872 13.788 74.7352 13.844C74.7912 13.892 74.8192 13.956 74.8192 14.036V19.724C74.8192 19.804 74.7912 19.872 74.7352 19.928C74.6872 19.976 74.6232 20 74.5432 20H73.9672C73.8872 20 73.8232 19.976 73.7752 19.928C73.7272 19.872 73.7032 19.804 73.7032 19.724V14.72H70.6192V19.724C70.6192 19.804 70.5952 19.872 70.5472 19.928C70.4992 19.976 70.4352 20 70.3552 20H69.7792ZM79.1608 20.12C78.5528 20.12 78.0448 20.004 77.6368 19.772C77.2288 19.54 76.9168 19.22 76.7008 18.812C76.4848 18.396 76.3648 17.924 76.3408 17.396C76.3328 17.26 76.3288 17.088 76.3288 16.88C76.3288 16.664 76.3328 16.492 76.3408 16.364C76.3648 15.828 76.4848 15.356 76.7008 14.948C76.9248 14.54 77.2408 14.22 77.6488 13.988C78.0568 13.756 78.5608 13.64 79.1608 13.64C79.7608 13.64 80.2648 13.756 80.6728 13.988C81.0808 14.22 81.3928 14.54 81.6088 14.948C81.8328 15.356 81.9568 15.828 81.9808 16.364C81.9888 16.492 81.9928 16.664 81.9928 16.88C81.9928 17.088 81.9888 17.26 81.9808 17.396C81.9568 17.924 81.8368 18.396 81.6208 18.812C81.4048 19.22 81.0928 19.54 80.6848 19.772C80.2768 20.004 79.7688 20.12 79.1608 20.12ZM79.1608 19.196C79.6568 19.196 80.0528 19.04 80.3488 18.728C80.6448 18.408 80.8048 17.944 80.8288 17.336C80.8368 17.216 80.8408 17.064 80.8408 16.88C80.8408 16.696 80.8368 16.544 80.8288 16.424C80.8048 15.816 80.6448 15.356 80.3488 15.044C80.0528 14.724 79.6568 14.564 79.1608 14.564C78.6648 14.564 78.2648 14.724 77.9608 15.044C77.6648 15.356 77.5088 15.816 77.4928 16.424C77.4848 16.544 77.4808 16.696 77.4808 16.88C77.4808 17.064 77.4848 17.216 77.4928 17.336C77.5088 17.944 77.6648 18.408 77.9608 18.728C78.2648 19.04 78.6648 19.196 79.1608 19.196ZM83.1954 20C83.1154 20 83.0474 19.972 82.9914 19.916C82.9354 19.86 82.9074 19.792 82.9074 19.712V19.268C82.9074 19.1 82.9914 19.012 83.1594 19.004C83.4074 18.996 83.6154 18.88 83.7834 18.656C83.9514 18.424 84.0794 18.06 84.1674 17.564C84.2554 17.06 84.2994 16.396 84.2994 15.572V14.036C84.2994 13.956 84.3234 13.892 84.3714 13.844C84.4274 13.788 84.4954 13.76 84.5754 13.76H88.3914C88.4714 13.76 88.5354 13.788 88.5834 13.844C88.6394 13.892 88.6674 13.956 88.6674 14.036V19.724C88.6674 19.804 88.6394 19.872 88.5834 19.928C88.5354 19.976 88.4714 20 88.3914 20H87.8154C87.7354 20 87.6714 19.976 87.6234 19.928C87.5754 19.872 87.5514 19.804 87.5514 19.724V14.72H85.3914V15.704C85.3914 16.472 85.3474 17.132 85.2594 17.684C85.1714 18.228 85.0354 18.672 84.8514 19.016C84.6754 19.352 84.4474 19.6 84.1674 19.76C83.8954 19.92 83.5714 20 83.1954 20ZM90.7444 22.28C90.6564 22.28 90.5884 22.252 90.5404 22.196C90.4924 22.148 90.4684 22.084 90.4684 22.004V21.596C90.4684 21.516 90.4924 21.448 90.5404 21.392C90.5884 21.344 90.6564 21.32 90.7444 21.32H91.0564C91.2404 21.32 91.3884 21.284 91.5004 21.212C91.6124 21.14 91.7124 21.016 91.8004 20.84C91.8964 20.672 92.0084 20.44 92.1364 20.144L94.7404 13.964C94.7644 13.9 94.7964 13.852 94.8364 13.82C94.8844 13.78 94.9524 13.76 95.0404 13.76H95.5684C95.6404 13.76 95.7004 13.784 95.7484 13.832C95.7964 13.88 95.8204 13.936 95.8204 14C95.8204 14.032 95.8164 14.064 95.8084 14.096C95.8004 14.12 95.7844 14.16 95.7604 14.216L93.4804 19.616C93.3604 19.904 93.2284 20.204 93.0844 20.516C92.9484 20.828 92.7924 21.116 92.6164 21.38C92.4484 21.652 92.2484 21.868 92.0164 22.028C91.7844 22.196 91.5124 22.28 91.2004 22.28H90.7444ZM92.4124 19.82L89.9884 14.216C89.9484 14.12 89.9284 14.052 89.9284 14.012C89.9364 13.94 89.9644 13.88 90.0124 13.832C90.0604 13.784 90.1164 13.76 90.1804 13.76H90.7444C90.8324 13.76 90.8964 13.78 90.9364 13.82C90.9844 13.86 91.0204 13.908 91.0444 13.964L93.0364 18.728L92.4124 19.82ZM100.967 20C100.879 20 100.811 19.976 100.763 19.928C100.715 19.872 100.691 19.804 100.691 19.724V17.468C100.475 17.668 100.211 17.816 99.8986 17.912C99.5946 18 99.2466 18.044 98.8546 18.044C98.1506 18.044 97.6026 17.888 97.2106 17.576C96.8266 17.264 96.6346 16.76 96.6346 16.064V14.036C96.6346 13.956 96.6586 13.892 96.7066 13.844C96.7626 13.788 96.8306 13.76 96.9106 13.76H97.4986C97.5786 13.76 97.6426 13.788 97.6906 13.844C97.7466 13.892 97.7746 13.956 97.7746 14.036V15.992C97.7746 16.352 97.8786 16.616 98.0866 16.784C98.3026 16.952 98.6306 17.036 99.0706 17.036C99.5586 17.036 99.9506 16.976 100.247 16.856C100.543 16.728 100.691 16.504 100.691 16.184V14.036C100.691 13.956 100.715 13.892 100.763 13.844C100.811 13.788 100.879 13.76 100.967 13.76H101.567C101.647 13.76 101.711 13.788 101.759 13.844C101.815 13.892 101.843 13.956 101.843 14.036V19.724C101.843 19.804 101.815 19.872 101.759 19.928C101.711 19.976 101.647 20 101.567 20H100.967ZM105.368 20.12C104.968 20.12 104.604 20.04 104.276 19.88C103.948 19.72 103.684 19.504 103.484 19.232C103.284 18.96 103.184 18.652 103.184 18.308C103.184 17.756 103.408 17.316 103.856 16.988C104.304 16.66 104.888 16.444 105.608 16.34L107.396 16.088V15.74C107.396 15.356 107.284 15.056 107.06 14.84C106.844 14.624 106.488 14.516 105.992 14.516C105.632 14.516 105.34 14.588 105.116 14.732C104.9 14.876 104.748 15.06 104.66 15.284C104.612 15.404 104.528 15.464 104.408 15.464H103.868C103.78 15.464 103.712 15.44 103.664 15.392C103.624 15.336 103.604 15.272 103.604 15.2C103.604 15.08 103.648 14.932 103.736 14.756C103.832 14.58 103.976 14.408 104.168 14.24C104.36 14.072 104.604 13.932 104.9 13.82C105.204 13.7 105.572 13.64 106.004 13.64C106.484 13.64 106.888 13.704 107.216 13.832C107.544 13.952 107.8 14.116 107.984 14.324C108.176 14.532 108.312 14.768 108.392 15.032C108.48 15.296 108.524 15.564 108.524 15.836V19.724C108.524 19.804 108.496 19.872 108.44 19.928C108.392 19.976 108.328 20 108.248 20H107.696C107.608 20 107.54 19.976 107.492 19.928C107.444 19.872 107.42 19.804 107.42 19.724V19.208C107.316 19.352 107.176 19.496 107 19.64C106.824 19.776 106.604 19.892 106.34 19.988C106.076 20.076 105.752 20.12 105.368 20.12ZM105.62 19.22C105.948 19.22 106.248 19.152 106.52 19.016C106.792 18.872 107.004 18.652 107.156 18.356C107.316 18.06 107.396 17.688 107.396 17.24V16.904L106.004 17.108C105.436 17.188 105.008 17.324 104.72 17.516C104.432 17.7 104.288 17.936 104.288 18.224C104.288 18.448 104.352 18.636 104.48 18.788C104.616 18.932 104.784 19.04 104.984 19.112C105.192 19.184 105.404 19.22 105.62 19.22ZM112.733 20.12C111.909 20.12 111.253 19.868 110.765 19.364C110.277 18.852 110.009 18.156 109.961 17.276C109.953 17.172 109.949 17.04 109.949 16.88C109.949 16.712 109.953 16.576 109.961 16.472C109.993 15.904 110.125 15.408 110.357 14.984C110.589 14.552 110.905 14.22 111.305 13.988C111.713 13.756 112.189 13.64 112.733 13.64C113.341 13.64 113.849 13.768 114.257 14.024C114.673 14.28 114.989 14.644 115.205 15.116C115.421 15.588 115.529 16.14 115.529 16.772V16.976C115.529 17.064 115.501 17.132 115.445 17.18C115.397 17.228 115.333 17.252 115.253 17.252H111.101C111.101 17.26 111.101 17.276 111.101 17.3C111.101 17.324 111.101 17.344 111.101 17.36C111.117 17.688 111.189 17.996 111.317 18.284C111.445 18.564 111.629 18.792 111.869 18.968C112.109 19.144 112.397 19.232 112.733 19.232C113.021 19.232 113.261 19.188 113.453 19.1C113.645 19.012 113.801 18.916 113.921 18.812C114.041 18.7 114.121 18.616 114.161 18.56C114.233 18.456 114.289 18.396 114.329 18.38C114.369 18.356 114.433 18.344 114.521 18.344H115.097C115.177 18.344 115.241 18.368 115.289 18.416C115.345 18.456 115.369 18.516 115.361 18.596C115.353 18.716 115.289 18.864 115.169 19.04C115.049 19.208 114.877 19.376 114.653 19.544C114.429 19.712 114.157 19.852 113.837 19.964C113.517 20.068 113.149 20.12 112.733 20.12ZM111.101 16.424H114.389V16.388C114.389 16.028 114.321 15.708 114.185 15.428C114.057 15.148 113.869 14.928 113.621 14.768C113.373 14.6 113.077 14.516 112.733 14.516C112.389 14.516 112.093 14.6 111.845 14.768C111.605 14.928 111.421 15.148 111.293 15.428C111.165 15.708 111.101 16.028 111.101 16.388V16.424ZM118.872 20C118.792 20 118.724 19.976 118.668 19.928C118.62 19.872 118.596 19.804 118.596 19.724V14.72H116.508C116.428 14.72 116.36 14.696 116.304 14.648C116.256 14.592 116.232 14.524 116.232 14.444V14.036C116.232 13.956 116.256 13.892 116.304 13.844C116.36 13.788 116.428 13.76 116.508 13.76H121.788C121.868 13.76 121.932 13.788 121.98 13.844C122.036 13.892 122.064 13.956 122.064 14.036V14.444C122.064 14.524 122.036 14.592 121.98 14.648C121.932 14.696 121.868 14.72 121.788 14.72H119.7V19.724C119.7 19.804 119.676 19.872 119.628 19.928C119.58 19.976 119.512 20 119.424 20H118.872ZM125.589 20.12C124.765 20.12 124.109 19.868 123.621 19.364C123.133 18.852 122.865 18.156 122.817 17.276C122.809 17.172 122.805 17.04 122.805 16.88C122.805 16.712 122.809 16.576 122.817 16.472C122.849 15.904 122.981 15.408 123.213 14.984C123.445 14.552 123.761 14.22 124.161 13.988C124.569 13.756 125.045 13.64 125.589 13.64C126.197 13.64 126.705 13.768 127.113 14.024C127.529 14.28 127.845 14.644 128.061 15.116C128.277 15.588 128.385 16.14 128.385 16.772V16.976C128.385 17.064 128.357 17.132 128.301 17.18C128.253 17.228 128.189 17.252 128.109 17.252H123.957C123.957 17.26 123.957 17.276 123.957 17.3C123.957 17.324 123.957 17.344 123.957 17.36C123.973 17.688 124.045 17.996 124.173 18.284C124.301 18.564 124.485 18.792 124.725 18.968C124.965 19.144 125.253 19.232 125.589 19.232C125.877 19.232 126.117 19.188 126.309 19.1C126.501 19.012 126.657 18.916 126.777 18.812C126.897 18.7 126.977 18.616 127.017 18.56C127.089 18.456 127.145 18.396 127.185 18.38C127.225 18.356 127.289 18.344 127.377 18.344H127.953C128.033 18.344 128.097 18.368 128.145 18.416C128.201 18.456 128.225 18.516 128.217 18.596C128.209 18.716 128.145 18.864 128.025 19.04C127.905 19.208 127.733 19.376 127.509 19.544C127.285 19.712 127.013 19.852 126.693 19.964C126.373 20.068 126.005 20.12 125.589 20.12ZM123.957 16.424H127.245V16.388C127.245 16.028 127.177 15.708 127.041 15.428C126.913 15.148 126.725 14.928 126.477 14.768C126.229 14.6 125.933 14.516 125.589 14.516C125.245 14.516 124.949 14.6 124.701 14.768C124.461 14.928 124.277 15.148 124.149 15.428C124.021 15.708 123.957 16.028 123.957 16.388V16.424ZM136.572 11.4512V20H134.885V13.3965L132.857 14.041V12.7109L136.391 11.4512H136.572ZM145.092 14.9844V16.4609C145.092 17.1016 145.023 17.6543 144.887 18.1191C144.75 18.5801 144.553 18.959 144.295 19.2559C144.041 19.5488 143.738 19.7656 143.387 19.9062C143.035 20.0469 142.645 20.1172 142.215 20.1172C141.871 20.1172 141.551 20.0742 141.254 19.9883C140.957 19.8984 140.689 19.7598 140.451 19.5723C140.217 19.3848 140.014 19.1484 139.842 18.8633C139.674 18.5742 139.545 18.2305 139.455 17.832C139.365 17.4336 139.32 16.9766 139.32 16.4609V14.9844C139.32 14.3438 139.389 13.7949 139.525 13.3379C139.666 12.877 139.863 12.5 140.117 12.207C140.375 11.9141 140.68 11.6992 141.031 11.5625C141.383 11.4219 141.773 11.3516 142.203 11.3516C142.547 11.3516 142.865 11.3965 143.158 11.4863C143.455 11.5723 143.723 11.707 143.961 11.8906C144.199 12.0742 144.402 12.3105 144.57 12.5996C144.738 12.8848 144.867 13.2266 144.957 13.625C145.047 14.0195 145.092 14.4727 145.092 14.9844ZM143.398 16.6836V14.7559C143.398 14.4473 143.381 14.1777 143.346 13.9473C143.314 13.7168 143.266 13.5215 143.199 13.3613C143.133 13.1973 143.051 13.0645 142.953 12.9629C142.855 12.8613 142.744 12.7871 142.619 12.7402C142.494 12.6934 142.355 12.6699 142.203 12.6699C142.012 12.6699 141.842 12.707 141.693 12.7812C141.549 12.8555 141.426 12.9746 141.324 13.1387C141.223 13.2988 141.145 13.5137 141.09 13.7832C141.039 14.0488 141.014 14.373 141.014 14.7559V16.6836C141.014 16.9922 141.029 17.2637 141.061 17.498C141.096 17.7324 141.146 17.9336 141.213 18.1016C141.283 18.2656 141.365 18.4004 141.459 18.5059C141.557 18.6074 141.668 18.6816 141.793 18.7285C141.922 18.7754 142.062 18.7988 142.215 18.7988C142.402 18.7988 142.568 18.7617 142.713 18.6875C142.861 18.6094 142.986 18.4883 143.088 18.3242C143.193 18.1562 143.271 17.9375 143.322 17.668C143.373 17.3984 143.398 17.0703 143.398 16.6836ZM153.184 10.8711H154.549C154.549 11.1875 154.51 11.459 154.432 11.6855C154.354 11.9082 154.229 12.0996 154.057 12.2598C153.885 12.416 153.654 12.5488 153.365 12.6582C153.076 12.7676 152.719 12.8613 152.293 12.9395C151.965 13.0059 151.68 13.1152 151.438 13.2676C151.199 13.4199 151.002 13.6289 150.846 13.8945C150.693 14.1562 150.584 14.4883 150.518 14.8906C150.451 15.2891 150.428 15.7695 150.447 16.332V16.6133L149.135 16.7949V16.5137C149.139 15.748 149.207 15.082 149.34 14.5156C149.477 13.9492 149.67 13.4727 149.92 13.0859C150.17 12.6953 150.471 12.3848 150.822 12.1543C151.174 11.9199 151.564 11.7559 151.994 11.6621C152.283 11.5996 152.514 11.5391 152.686 11.4805C152.861 11.418 152.988 11.3398 153.066 11.2461C153.145 11.1523 153.184 11.0273 153.184 10.8711ZM152.445 14.0176C152.875 14.0176 153.256 14.0918 153.588 14.2402C153.92 14.3848 154.199 14.5898 154.426 14.8555C154.652 15.1211 154.824 15.4336 154.941 15.793C155.059 16.1523 155.117 16.5449 155.117 16.9707V17.0938C155.117 17.5273 155.051 17.9297 154.918 18.3008C154.789 18.668 154.598 18.9883 154.344 19.2617C154.09 19.5352 153.777 19.748 153.406 19.9004C153.035 20.0488 152.611 20.123 152.135 20.123C151.654 20.123 151.227 20.043 150.852 19.8828C150.48 19.7188 150.166 19.4902 149.908 19.1973C149.654 18.9004 149.461 18.5547 149.328 18.1602C149.199 17.7617 149.135 17.3281 149.135 16.8594V16.7305C149.135 16.6641 149.164 16.5996 149.223 16.5371C149.285 16.4707 149.357 16.3965 149.439 16.3145C149.525 16.2324 149.602 16.1289 149.668 16.0039C149.902 15.5703 150.158 15.207 150.436 14.9141C150.713 14.6172 151.016 14.3945 151.344 14.2461C151.676 14.0938 152.043 14.0176 152.445 14.0176ZM152.123 15.3359C151.807 15.3359 151.553 15.4121 151.361 15.5645C151.17 15.7129 151.031 15.9121 150.945 16.1621C150.863 16.4082 150.822 16.6777 150.822 16.9707V17.0938C150.822 17.332 150.846 17.5547 150.893 17.7617C150.939 17.9648 151.014 18.1465 151.115 18.3066C151.217 18.4629 151.352 18.5859 151.52 18.6758C151.688 18.7617 151.893 18.8047 152.135 18.8047C152.369 18.8047 152.568 18.7617 152.732 18.6758C152.9 18.5859 153.035 18.4629 153.137 18.3066C153.238 18.1465 153.312 17.9648 153.359 17.7617C153.406 17.5547 153.43 17.332 153.43 17.0938V16.9707C153.43 16.748 153.406 16.5391 153.359 16.3438C153.312 16.1445 153.238 15.9707 153.137 15.8223C153.035 15.6699 152.9 15.5508 152.732 15.4648C152.564 15.3789 152.361 15.3359 152.123 15.3359ZM155.873 16.8945V16.7715C155.873 16.3066 155.939 15.8789 156.072 15.4883C156.205 15.0938 156.398 14.752 156.652 14.4629C156.906 14.1738 157.219 13.9492 157.59 13.7891C157.961 13.625 158.387 13.543 158.867 13.543C159.348 13.543 159.775 13.625 160.15 13.7891C160.525 13.9492 160.84 14.1738 161.094 14.4629C161.352 14.752 161.547 15.0938 161.68 15.4883C161.812 15.8789 161.879 16.3066 161.879 16.7715V16.8945C161.879 17.3555 161.812 17.7832 161.68 18.1777C161.547 18.5684 161.352 18.9102 161.094 19.2031C160.84 19.4922 160.527 19.7168 160.156 19.877C159.785 20.0371 159.359 20.1172 158.879 20.1172C158.398 20.1172 157.971 20.0371 157.596 19.877C157.225 19.7168 156.91 19.4922 156.652 19.2031C156.398 18.9102 156.205 18.5684 156.072 18.1777C155.939 17.7832 155.873 17.3555 155.873 16.8945ZM157.561 16.7715V16.8945C157.561 17.1602 157.584 17.4082 157.631 17.6387C157.678 17.8691 157.752 18.0723 157.854 18.248C157.959 18.4199 158.096 18.5547 158.264 18.6523C158.432 18.75 158.637 18.7988 158.879 18.7988C159.113 18.7988 159.314 18.75 159.482 18.6523C159.65 18.5547 159.785 18.4199 159.887 18.248C159.988 18.0723 160.062 17.8691 160.109 17.6387C160.16 17.4082 160.186 17.1602 160.186 16.8945V16.7715C160.186 16.5137 160.16 16.2715 160.109 16.0449C160.062 15.8145 159.986 15.6113 159.881 15.4355C159.779 15.2559 159.645 15.1152 159.477 15.0137C159.309 14.9121 159.105 14.8613 158.867 14.8613C158.629 14.8613 158.426 14.9121 158.258 15.0137C158.094 15.1152 157.959 15.2559 157.854 15.4355C157.752 15.6113 157.678 15.8145 157.631 16.0449C157.584 16.2715 157.561 16.5137 157.561 16.7715ZM167.258 16.2207V17.5332H164.035V16.2207H167.258ZM164.598 13.6602V20H162.91V13.6602H164.598ZM168.4 13.6602V20H166.707V13.6602H168.4ZM171.594 19.2852L173.275 13.6602H175.086L172.537 20.9551C172.482 21.1152 172.408 21.2871 172.314 21.4707C172.225 21.6543 172.102 21.8281 171.945 21.9922C171.793 22.1602 171.6 22.2969 171.365 22.4023C171.135 22.5078 170.852 22.5605 170.516 22.5605C170.355 22.5605 170.225 22.5508 170.123 22.5312C170.021 22.5117 169.9 22.4844 169.76 22.4492V21.2129C169.803 21.2129 169.848 21.2129 169.895 21.2129C169.941 21.2168 169.986 21.2188 170.029 21.2188C170.252 21.2188 170.434 21.1934 170.574 21.1426C170.715 21.0918 170.828 21.0137 170.914 20.9082C171 20.8066 171.068 20.6738 171.119 20.5098L171.594 19.2852ZM170.891 13.6602L172.268 18.2539L172.508 20.041L171.359 20.1641L169.08 13.6602H170.891ZM178.297 18.7988C178.504 18.7988 178.688 18.7598 178.848 18.6816C179.008 18.5996 179.133 18.4863 179.223 18.3418C179.316 18.1934 179.365 18.0195 179.369 17.8203H180.957C180.953 18.2656 180.834 18.6621 180.6 19.0098C180.365 19.3535 180.051 19.625 179.656 19.8242C179.262 20.0195 178.82 20.1172 178.332 20.1172C177.84 20.1172 177.41 20.0352 177.043 19.8711C176.68 19.707 176.377 19.4805 176.135 19.1914C175.893 18.8984 175.711 18.5586 175.59 18.1719C175.469 17.7812 175.408 17.3633 175.408 16.918V16.748C175.408 16.2988 175.469 15.8809 175.59 15.4941C175.711 15.1035 175.893 14.7637 176.135 14.4746C176.377 14.1816 176.68 13.9531 177.043 13.7891C177.406 13.625 177.832 13.543 178.32 13.543C178.84 13.543 179.295 13.6426 179.686 13.8418C180.08 14.041 180.389 14.3262 180.611 14.6973C180.838 15.0645 180.953 15.5 180.957 16.0039H179.369C179.365 15.793 179.32 15.6016 179.234 15.4297C179.152 15.2578 179.031 15.1211 178.871 15.0195C178.715 14.9141 178.521 14.8613 178.291 14.8613C178.045 14.8613 177.844 14.9141 177.688 15.0195C177.531 15.1211 177.41 15.2617 177.324 15.4414C177.238 15.6172 177.178 15.8184 177.143 16.0449C177.111 16.2676 177.096 16.502 177.096 16.748V16.918C177.096 17.1641 177.111 17.4004 177.143 17.627C177.174 17.8535 177.232 18.0547 177.318 18.2305C177.408 18.4062 177.531 18.5449 177.688 18.6465C177.844 18.748 178.047 18.7988 178.297 18.7988ZM181.666 16.8945V16.7715C181.666 16.3066 181.732 15.8789 181.865 15.4883C181.998 15.0938 182.191 14.752 182.445 14.4629C182.699 14.1738 183.012 13.9492 183.383 13.7891C183.754 13.625 184.18 13.543 184.66 13.543C185.141 13.543 185.568 13.625 185.943 13.7891C186.318 13.9492 186.633 14.1738 186.887 14.4629C187.145 14.752 187.34 15.0938 187.473 15.4883C187.605 15.8789 187.672 16.3066 187.672 16.7715V16.8945C187.672 17.3555 187.605 17.7832 187.473 18.1777C187.34 18.5684 187.145 18.9102 186.887 19.2031C186.633 19.4922 186.32 19.7168 185.949 19.877C185.578 20.0371 185.152 20.1172 184.672 20.1172C184.191 20.1172 183.764 20.0371 183.389 19.877C183.018 19.7168 182.703 19.4922 182.445 19.2031C182.191 18.9102 181.998 18.5684 181.865 18.1777C181.732 17.7832 181.666 17.3555 181.666 16.8945ZM183.354 16.7715V16.8945C183.354 17.1602 183.377 17.4082 183.424 17.6387C183.471 17.8691 183.545 18.0723 183.646 18.248C183.752 18.4199 183.889 18.5547 184.057 18.6523C184.225 18.75 184.43 18.7988 184.672 18.7988C184.906 18.7988 185.107 18.75 185.275 18.6523C185.443 18.5547 185.578 18.4199 185.68 18.248C185.781 18.0723 185.855 17.8691 185.902 17.6387C185.953 17.4082 185.979 17.1602 185.979 16.8945V16.7715C185.979 16.5137 185.953 16.2715 185.902 16.0449C185.855 15.8145 185.779 15.6113 185.674 15.4355C185.572 15.2559 185.438 15.1152 185.27 15.0137C185.102 14.9121 184.898 14.8613 184.66 14.8613C184.422 14.8613 184.219 14.9121 184.051 15.0137C183.887 15.1152 183.752 15.2559 183.646 15.4355C183.545 15.6113 183.471 15.8145 183.424 16.0449C183.377 16.2715 183.354 16.5137 183.354 16.7715ZM191.867 17.3516H189.881L189.869 16.2441H191.51C191.729 16.2441 191.906 16.2227 192.043 16.1797C192.18 16.1328 192.279 16.0645 192.342 15.9746C192.408 15.8809 192.441 15.7676 192.441 15.6348C192.441 15.5176 192.42 15.418 192.377 15.3359C192.338 15.25 192.277 15.1797 192.195 15.125C192.113 15.0703 192.01 15.0312 191.885 15.0078C191.764 14.9805 191.621 14.9668 191.457 14.9668H190.508V20H188.82V13.6602H191.457C191.871 13.6602 192.242 13.6973 192.57 13.7715C192.898 13.8418 193.178 13.9492 193.408 14.0938C193.643 14.2383 193.82 14.4219 193.941 14.6445C194.066 14.8633 194.129 15.123 194.129 15.4238C194.129 15.6191 194.084 15.8027 193.994 15.9746C193.908 16.1465 193.779 16.2988 193.607 16.4316C193.436 16.5645 193.223 16.6738 192.969 16.7598C192.719 16.8418 192.43 16.8926 192.102 16.9121L191.867 17.3516ZM191.867 20H189.465L190.045 18.6934H191.867C192.074 18.6934 192.244 18.668 192.377 18.6172C192.51 18.5664 192.607 18.4922 192.67 18.3945C192.736 18.293 192.77 18.1719 192.77 18.0312C192.77 17.8945 192.74 17.7754 192.682 17.6738C192.623 17.5723 192.527 17.4941 192.395 17.4395C192.266 17.3809 192.09 17.3516 191.867 17.3516H190.291L190.303 16.2441H192.096L192.506 16.6895C192.951 16.7168 193.318 16.8008 193.607 16.9414C193.896 17.082 194.109 17.2617 194.246 17.4805C194.387 17.6953 194.457 17.9316 194.457 18.1895C194.457 18.4902 194.4 18.7539 194.287 18.9805C194.174 19.207 194.006 19.3965 193.783 19.5488C193.564 19.6973 193.295 19.8105 192.975 19.8887C192.654 19.9629 192.285 20 191.867 20Z" fill="#70C05B"/>
</svg>
