<svg width="32" height="32" viewBox="0 0 32 32" fill="none" xmlns="http://www.w3.org/2000/svg">
<path fill-rule="evenodd" clip-rule="evenodd" d="M7.33325 27.9998C7.33325 26.1589 8.82564 24.6665 10.6666 24.6665C12.5075 24.6665 13.9999 26.1589 13.9999 27.9998C13.9999 29.8408 12.5075 31.3332 10.6666 31.3332C8.82564 31.3332 7.33325 29.8408 7.33325 27.9998ZM10.6666 25.9998C9.56202 25.9998 8.66659 26.8953 8.66659 27.9998C8.66659 29.1044 9.56202 29.9998 10.6666 29.9998C11.7712 29.9998 12.6666 29.1044 12.6666 27.9998C12.6666 26.8953 11.7712 25.9998 10.6666 25.9998Z" fill="white"/>
<path fill-rule="evenodd" clip-rule="evenodd" d="M23.3333 27.9998C23.3333 26.1589 24.8256 24.6665 26.6666 24.6665C28.5075 24.6665 29.9999 26.1589 29.9999 27.9998C29.9999 29.8408 28.5075 31.3332 26.6666 31.3332C24.8256 31.3332 23.3333 29.8408 23.3333 27.9998ZM26.6666 25.9998C25.562 25.9998 24.6666 26.8953 24.6666 27.9998C24.6666 29.1044 25.562 29.9998 26.6666 29.9998C27.7712 29.9998 28.6666 29.1044 28.6666 27.9998C28.6666 26.8953 27.7712 25.9998 26.6666 25.9998Z" fill="white"/>
<path fill-rule="evenodd" clip-rule="evenodd" d="M1.33341 0.666504C0.965225 0.666504 0.666748 0.964981 0.666748 1.33317C0.666748 1.70136 0.965225 1.99984 1.33341 1.99984H6.10743C7.11719 7.7218 8.13785 13.4189 8.99916 19.161C9.24392 20.7927 10.6456 21.9998 12.2956 21.9998H25.813C27.4019 21.9998 28.77 20.8783 29.0816 19.3202L31.0005 9.7254C31.2481 8.48782 30.3015 7.33317 29.0394 7.33317H9.54737C9.14342 7.33317 8.77071 7.45186 8.45923 7.65441L7.32327 1.21731C7.26705 0.898742 6.99024 0.666504 6.66675 0.666504H1.33341ZM8.88808 9.43206C8.82762 9.029 9.13979 8.6665 9.54737 8.6665H29.0394C29.4601 8.6665 29.7756 9.05139 29.6931 9.46391L27.7741 19.0587C27.5872 19.9936 26.7663 20.6665 25.813 20.6665H12.2956C11.3056 20.6665 10.4646 19.9422 10.3177 18.9632L8.88808 9.43206Z" fill="white"/>
</svg>
